<svg width="165" height="21" viewBox="0 0 165 21" fill="none" xmlns="http://www.w3.org/2000/svg">
<g clip-path="url(#clip0_418_6)">
<path d="M17.0504 7.47088H13.5973C13.4988 6.90459 13.3172 6.40293 13.0526 5.96591C12.7879 5.52273 12.4586 5.14725 12.0646 4.83949C11.6707 4.53172 11.2214 4.3009 10.7166 4.14702C10.218 3.98698 9.67945 3.90696 9.10085 3.90696C8.07292 3.90696 7.16193 4.16548 6.3679 4.68253C5.57386 5.19342 4.95218 5.94436 4.50284 6.93537C4.0535 7.92022 3.82884 9.12358 3.82884 10.5455C3.82884 11.992 4.0535 13.2107 4.50284 14.2017C4.95833 15.1866 5.58002 15.9313 6.3679 16.4361C7.16193 16.9347 8.06984 17.1839 9.09162 17.1839C9.65791 17.1839 10.1873 17.1101 10.6797 16.9624C11.1783 16.8085 11.6245 16.5838 12.0185 16.2884C12.4186 15.9929 12.754 15.6297 13.0249 15.1989C13.3018 14.768 13.4927 14.2756 13.5973 13.7216L17.0504 13.7401C16.9212 14.6387 16.6411 15.482 16.2102 16.2699C15.7855 17.0578 15.2285 17.7533 14.5391 18.3565C13.8497 18.9536 13.0433 19.4214 12.12 19.7599C11.1967 20.0923 10.1719 20.2585 9.04546 20.2585C7.38352 20.2585 5.9001 19.8738 4.59517 19.1044C3.29025 18.335 2.26231 17.224 1.51136 15.7713C0.760417 14.3187 0.384943 12.5767 0.384943 10.5455C0.384943 8.50805 0.763494 6.7661 1.5206 5.3196C2.2777 3.86695 3.30871 2.75592 4.61364 1.9865C5.91856 1.21709 7.39583 0.832386 9.04546 0.832386C10.098 0.832386 11.0767 0.980113 11.9815 1.27557C12.8864 1.57102 13.6927 2.00497 14.4006 2.57741C15.1084 3.1437 15.6901 3.83925 16.1456 4.66406C16.6072 5.48272 16.9089 6.41832 17.0504 7.47088ZM21.9519 1.09091V20H18.6096V1.09091H21.9519ZM30.145 20.277C28.76 20.277 27.5597 19.9723 26.5441 19.3629C25.5285 18.7536 24.7406 17.901 24.1805 16.8054C23.6265 15.7098 23.3495 14.4295 23.3495 12.9645C23.3495 11.4995 23.6265 10.2161 24.1805 9.11435C24.7406 8.01255 25.5285 7.15696 26.5441 6.54759C27.5597 5.93821 28.76 5.63352 30.145 5.63352C31.5299 5.63352 32.7302 5.93821 33.7458 6.54759C34.7614 7.15696 35.5462 8.01255 36.1002 9.11435C36.6604 10.2161 36.9404 11.4995 36.9404 12.9645C36.9404 14.4295 36.6604 15.7098 36.1002 16.8054C35.5462 17.901 34.7614 18.7536 33.7458 19.3629C32.7302 19.9723 31.5299 20.277 30.145 20.277ZM30.1634 17.5994C30.9144 17.5994 31.5422 17.3932 32.047 16.9808C32.5517 16.5623 32.9272 16.0021 33.1734 15.3004C33.4257 14.5987 33.5519 13.817 33.5519 12.9553C33.5519 12.0874 33.4257 11.3026 33.1734 10.6009C32.9272 9.89299 32.5517 9.32978 32.047 8.91122C31.5422 8.49266 30.9144 8.28338 30.1634 8.28338C29.394 8.28338 28.7539 8.49266 28.243 8.91122C27.7382 9.32978 27.3597 9.89299 27.1073 10.6009C26.8611 11.3026 26.738 12.0874 26.738 12.9553C26.738 13.817 26.8611 14.5987 27.1073 15.3004C27.3597 16.0021 27.7382 16.5623 28.243 16.9808C28.7539 17.3932 29.394 17.5994 30.1634 17.5994ZM47.3863 14.0355V5.81818H50.7286V20H47.4879V17.4794H47.3401C47.0201 18.2734 46.4938 18.9228 45.7613 19.4276C45.035 19.9323 44.1394 20.1847 43.0745 20.1847C42.1451 20.1847 41.3233 19.9785 40.6093 19.5661C39.9015 19.1475 39.3475 18.5412 38.9474 17.7472C38.5473 16.947 38.3473 15.9806 38.3473 14.848V5.81818H41.6896V14.331C41.6896 15.2296 41.9358 15.9437 42.4282 16.473C42.9206 17.0024 43.5669 17.267 44.3671 17.267C44.8596 17.267 45.3366 17.147 45.7982 16.907C46.2599 16.6669 46.6384 16.3099 46.9339 15.8359C47.2355 15.3558 47.3863 14.7557 47.3863 14.0355ZM57.9984 20.2493C56.8843 20.2493 55.8871 19.9631 55.0069 19.3906C54.1267 18.8182 53.4312 17.9872 52.9203 16.8977C52.4094 15.8082 52.1539 14.4848 52.1539 12.9276C52.1539 11.3518 52.4125 10.0223 52.9295 8.93892C53.4527 7.84943 54.1575 7.0277 55.0438 6.47372C55.9302 5.91359 56.9181 5.63352 58.0076 5.63352C58.8386 5.63352 59.5218 5.77509 60.0573 6.05824C60.5929 6.33523 61.0176 6.67069 61.3315 7.06463C61.6454 7.45241 61.8885 7.81865 62.0609 8.16335H62.1994V1.09091H65.551V20H62.264V17.7656H62.0609C61.8885 18.1103 61.6393 18.4766 61.313 18.8643C60.9868 19.246 60.5559 19.5722 60.0204 19.843C59.4849 20.1139 58.8109 20.2493 57.9984 20.2493ZM58.9309 17.5071C59.6388 17.5071 60.242 17.3163 60.7406 16.9347C61.2392 16.5469 61.6177 16.0083 61.8762 15.3189C62.1348 14.6295 62.264 13.8262 62.264 12.9091C62.264 11.992 62.1348 11.1948 61.8762 10.5178C61.6239 9.84067 61.2484 9.31439 60.7498 8.93892C60.2574 8.56345 59.6511 8.37571 58.9309 8.37571C58.1861 8.37571 57.5644 8.5696 57.0659 8.95739C56.5673 9.34517 56.1918 9.88068 55.9394 10.5639C55.6871 11.2472 55.5609 12.0289 55.5609 12.9091C55.5609 13.7955 55.6871 14.5864 55.9394 15.282C56.198 15.9714 56.5765 16.5161 57.0751 16.9162C57.5798 17.3101 58.1984 17.5071 58.9309 17.5071ZM78.1066 6.28906C78.0204 5.48272 77.6572 4.85488 77.0171 4.40554C76.3831 3.9562 75.5583 3.73153 74.5426 3.73153C73.8286 3.73153 73.2162 3.83925 72.7053 4.05469C72.1944 4.27012 71.8035 4.5625 71.5327 4.93182C71.2619 5.30114 71.1234 5.72277 71.1172 6.19673C71.1172 6.59067 71.2065 6.93229 71.385 7.22159C71.5696 7.51089 71.8189 7.7571 72.1328 7.96023C72.4468 8.1572 72.7945 8.32339 73.1762 8.45881C73.5578 8.59422 73.9425 8.7081 74.3303 8.80043L76.103 9.24361C76.817 9.4098 77.5033 9.63447 78.162 9.91761C78.8267 10.2008 79.4207 10.5578 79.9439 10.9886C80.4733 11.4195 80.8918 11.9396 81.1996 12.549C81.5074 13.1584 81.6613 13.8724 81.6613 14.6911C81.6613 15.799 81.3781 16.7746 80.8118 17.6179C80.2455 18.455 79.4269 19.1106 78.3559 19.5845C77.291 20.0523 76.0015 20.2862 74.4873 20.2862C73.0161 20.2862 71.7389 20.0585 70.6556 19.603C69.5784 19.1475 68.7351 18.4827 68.1257 17.6087C67.5225 16.7346 67.1963 15.6697 67.1471 14.4141H70.5171C70.5663 15.0727 70.7694 15.6205 71.1265 16.0575C71.4835 16.4946 71.9482 16.8208 72.5206 17.0362C73.0992 17.2517 73.7455 17.3594 74.4596 17.3594C75.2043 17.3594 75.8568 17.2486 76.4169 17.027C76.9832 16.7992 77.4264 16.4853 77.7465 16.0852C78.0666 15.679 78.2297 15.205 78.2358 14.6634C78.2297 14.1709 78.085 13.7647 77.8019 13.4446C77.5187 13.1184 77.1217 12.8475 76.6108 12.6321C76.1061 12.4105 75.5152 12.2135 74.8381 12.0412L72.6868 11.4872C71.1295 11.0871 69.8985 10.4808 68.9936 9.66832C68.095 8.84967 67.6456 7.76326 67.6456 6.40909C67.6456 5.29498 67.9472 4.31936 68.5505 3.48224C69.1598 2.64512 69.9877 1.99574 71.0341 1.53409C72.0805 1.06629 73.2654 0.832386 74.5888 0.832386C75.9307 0.832386 77.1063 1.06629 78.1158 1.53409C79.1314 1.99574 79.9285 2.63897 80.5071 3.46378C81.0857 4.28243 81.3843 5.22419 81.4027 6.28906H78.1066ZM89.4157 20.277C87.9939 20.277 86.7659 19.9815 85.7318 19.3906C84.7039 18.7936 83.9129 17.9503 83.3589 16.8608C82.8049 15.7652 82.528 14.4756 82.528 12.9922C82.528 11.5334 82.8049 10.2531 83.3589 9.15128C83.9191 8.04332 84.7008 7.18158 85.7041 6.56605C86.7074 5.94437 87.8861 5.63352 89.2403 5.63352C90.1144 5.63352 90.9392 5.77509 91.7147 6.05824C92.4965 6.33523 93.1859 6.7661 93.7829 7.35085C94.3861 7.93561 94.8601 8.6804 95.2048 9.58523C95.5495 10.4839 95.7218 11.5549 95.7218 12.7983V13.8232H84.0976V11.5703H92.518C92.5119 10.9302 92.3734 10.3608 92.1025 9.86222C91.8317 9.35748 91.4531 8.96046 90.9669 8.67116C90.4868 8.38187 89.9266 8.23722 89.2865 8.23722C88.6032 8.23722 88.0031 8.40341 87.486 8.73579C86.969 9.06203 86.5658 9.4929 86.2765 10.0284C85.9934 10.5578 85.8487 11.1394 85.8426 11.7734V13.7401C85.8426 14.5649 85.9934 15.2727 86.295 15.8636C86.5966 16.4484 87.0182 16.8977 87.5599 17.2116C88.1016 17.5194 88.7356 17.6733 89.4619 17.6733C89.9482 17.6733 90.3883 17.6056 90.7822 17.4702C91.1762 17.3286 91.5178 17.1224 91.8071 16.8516C92.0964 16.5807 92.3149 16.2453 92.4626 15.8452L95.5834 16.196C95.3864 17.0208 95.0109 17.741 94.4569 18.3565C93.9091 18.9659 93.2074 19.4399 92.3518 19.7784C91.4962 20.1108 90.5175 20.277 89.4157 20.277ZM97.1194 20V5.81818H100.36V8.18182H100.508C100.766 7.36316 101.21 6.73224 101.837 6.28906C102.471 5.83973 103.195 5.61506 104.007 5.61506C104.192 5.61506 104.398 5.62429 104.626 5.64275C104.86 5.65507 105.054 5.67661 105.208 5.70739V8.78196C105.066 8.73272 104.841 8.68963 104.533 8.6527C104.232 8.60961 103.94 8.58807 103.656 8.58807C103.047 8.58807 102.499 8.72041 102.013 8.98508C101.533 9.24361 101.154 9.60369 100.877 10.0653C100.6 10.527 100.462 11.0594 100.462 11.6626V20H97.1194ZM119.097 5.81818L114.047 20H110.354L105.303 5.81818H108.867L112.126 16.353H112.274L115.543 5.81818H119.097ZM119.98 20V5.81818H123.322V20H119.98ZM121.661 3.8054C121.131 3.8054 120.676 3.62997 120.294 3.27912C119.912 2.92211 119.722 2.49432 119.722 1.99574C119.722 1.491 119.912 1.06321 120.294 0.712357C120.676 0.35535 121.131 0.176846 121.661 0.176846C122.196 0.176846 122.652 0.35535 123.027 0.712357C123.409 1.06321 123.599 1.491 123.599 1.99574C123.599 2.49432 123.409 2.92211 123.027 3.27912C122.652 3.62997 122.196 3.8054 121.661 3.8054ZM131.516 20.277C130.1 20.277 128.884 19.9661 127.868 19.3445C126.859 18.7228 126.08 17.8641 125.533 16.7685C124.991 15.6667 124.72 14.3987 124.72 12.9645C124.72 11.5241 124.997 10.2531 125.551 9.15128C126.105 8.04332 126.887 7.18158 127.896 6.56605C128.912 5.94437 130.112 5.63352 131.497 5.63352C132.648 5.63352 133.667 5.84588 134.553 6.2706C135.446 6.68916 136.157 7.28314 136.686 8.05256C137.215 8.81581 137.517 9.70833 137.591 10.7301H134.396C134.267 10.0469 133.959 9.47751 133.473 9.02202C132.993 8.56037 132.35 8.32954 131.543 8.32954C130.86 8.32954 130.26 8.5142 129.743 8.88352C129.226 9.24669 128.823 9.76989 128.533 10.4531C128.25 11.1364 128.109 11.955 128.109 12.9091C128.109 13.8755 128.25 14.7064 128.533 15.402C128.816 16.0914 129.213 16.6238 129.724 16.9993C130.241 17.3686 130.848 17.5533 131.543 17.5533C132.036 17.5533 132.476 17.4609 132.864 17.2763C133.257 17.0855 133.587 16.8116 133.851 16.4545C134.116 16.0975 134.298 15.6636 134.396 15.1527H137.591C137.511 16.156 137.215 17.0455 136.704 17.821C136.194 18.5904 135.498 19.1937 134.618 19.6307C133.738 20.0616 132.703 20.277 131.516 20.277ZM145.184 20.277C143.762 20.277 142.534 19.9815 141.5 19.3906C140.472 18.7936 139.681 17.9503 139.127 16.8608C138.573 15.7652 138.296 14.4756 138.296 12.9922C138.296 11.5334 138.573 10.2531 139.127 9.15128C139.687 8.04332 140.469 7.18158 141.472 6.56605C142.475 5.94437 143.654 5.63352 145.008 5.63352C145.882 5.63352 146.707 5.77509 147.483 6.05824C148.264 6.33523 148.954 6.7661 149.551 7.35085C150.154 7.93561 150.628 8.6804 150.973 9.58523C151.317 10.4839 151.49 11.5549 151.49 12.7983V13.8232H139.866V11.5703H148.286C148.28 10.9302 148.141 10.3608 147.871 9.86222C147.6 9.35748 147.221 8.96046 146.735 8.67116C146.255 8.38187 145.695 8.23722 145.054 8.23722C144.371 8.23722 143.771 8.40341 143.254 8.73579C142.737 9.06203 142.334 9.4929 142.045 10.0284C141.761 10.5578 141.617 11.1394 141.611 11.7734V13.7401C141.611 14.5649 141.761 15.2727 142.063 15.8636C142.365 16.4484 142.786 16.8977 143.328 17.2116C143.87 17.5194 144.504 17.6733 145.23 17.6733C145.716 17.6733 146.156 17.6056 146.55 17.4702C146.944 17.3286 147.286 17.1224 147.575 16.8516C147.864 16.5807 148.083 16.2453 148.231 15.8452L151.351 16.196C151.154 17.0208 150.779 17.741 150.225 18.3565C149.677 18.9659 148.975 19.4399 148.12 19.7784C147.264 20.1108 146.286 20.277 145.184 20.277ZM164.096 9.56676L161.049 9.89915C160.963 9.59138 160.812 9.30208 160.597 9.03125C160.388 8.76042 160.104 8.5419 159.747 8.37571C159.39 8.20952 158.953 8.12642 158.436 8.12642C157.741 8.12642 157.156 8.27722 156.682 8.57883C156.214 8.88044 155.984 9.27131 155.99 9.75142C155.984 10.1638 156.134 10.4993 156.442 10.7578C156.756 11.0163 157.273 11.2287 157.993 11.3949L160.412 11.9119C161.754 12.2012 162.751 12.6598 163.404 13.2876C164.062 13.9155 164.395 14.7372 164.401 15.7528C164.395 16.6454 164.133 17.4332 163.616 18.1165C163.105 18.7936 162.394 19.3229 161.483 19.7045C160.572 20.0862 159.526 20.277 158.344 20.277C156.608 20.277 155.211 19.9138 154.152 19.1875C153.094 18.455 152.463 17.4363 152.26 16.1314L155.519 15.8175C155.667 16.4576 155.98 16.9408 156.461 17.267C156.941 17.5933 157.565 17.7564 158.335 17.7564C159.129 17.7564 159.766 17.5933 160.246 17.267C160.732 16.9408 160.975 16.5376 160.975 16.0575C160.975 15.6513 160.819 15.3158 160.505 15.0511C160.197 14.7865 159.717 14.5833 159.064 14.4418L156.645 13.9339C155.285 13.6508 154.279 13.1738 153.626 12.5028C152.974 11.8258 152.65 10.9702 152.657 9.93608C152.65 9.06203 152.887 8.30492 153.368 7.66477C153.854 7.01847 154.528 6.51989 155.39 6.16903C156.257 5.81203 157.258 5.63352 158.39 5.63352C160.052 5.63352 161.36 5.98745 162.314 6.69531C163.274 7.40317 163.868 8.36032 164.096 9.56676Z" fill="white"/>
</g>
<defs>
<clipPath id="clip0_418_6">
<rect width="165" height="21" fill="white"/>
</clipPath>
</defs>
</svg>
